<svg width="20" height="20" viewBox="0 0 20 20" fill="none" xmlns="http://www.w3.org/2000/svg">
<path fill-rule="evenodd" clip-rule="evenodd" d="M1.05752 1.05703C1.57822 0.536329 2.42244 0.536329 2.94313 1.05703L10.0003 8.11422L17.0575 1.05703C17.5782 0.536329 18.4224 0.536329 18.9431 1.05703C19.4638 1.57773 19.4638 2.42195 18.9431 2.94265L11.8859 9.99984L18.9431 17.057C19.4638 17.5777 19.4638 18.4219 18.9431 18.9426C18.4224 19.4633 17.5782 19.4633 17.0575 18.9426L10.0003 11.8855L2.94314 18.9426C2.42244 19.4633 1.57822 19.4633 1.05752 18.9426C0.536818 18.4219 0.536818 17.5777 1.05752 17.057L8.11471 9.99984L1.05752 2.94265C0.536817 2.42195 0.536817 1.57773 1.05752 1.05703Z" fill="#777E91"/>
</svg>
