<svg width="20" height="20" viewBox="0 0 20 16" fill="none" xmlns="http://www.w3.org/2000/svg">
<path fill-rule="evenodd" clip-rule="evenodd" d="M10.5777 3.76422C10.2552 4.07365 9.74609 4.07365 9.42365 3.76422L8.84665 3.2105C8.17129 2.56239 7.25893 2.16667 6.25065 2.16667C4.17958 2.16667 2.50065 3.8456 2.50065 5.91667C2.50065 7.90219 3.57547 9.54171 5.12712 10.8888C6.68008 12.237 8.53682 13.1312 9.64619 13.5876C9.87815 13.683 10.1232 13.683 10.3551 13.5876C11.4645 13.1312 13.3212 12.237 14.8742 10.8888C16.4258 9.54171 17.5006 7.90218 17.5006 5.91667C17.5006 3.8456 15.8217 2.16667 13.7506 2.16667C12.7424 2.16667 11.83 2.56239 11.1547 3.2105L10.5777 3.76422ZM10.0007 2.00798C9.02741 1.074 7.70606 0.5 6.25065 0.5C3.25911 0.5 0.833984 2.92512 0.833984 5.91667C0.833984 11.2235 6.6426 14.1542 9.01214 15.1289C9.65029 15.3914 10.351 15.3914 10.9892 15.1289C13.3587 14.1542 19.1673 11.2235 19.1673 5.91667C19.1673 2.92512 16.7422 0.5 13.7506 0.5C12.2952 0.5 10.9739 1.074 10.0007 2.00798Z" fill="#777E91"/>
</svg>
