<svg width="27" height="28" viewBox="0 0 27 28" fill="none" xmlns="http://www.w3.org/2000/svg">
<path fill-rule="evenodd" clip-rule="evenodd" d="M17.3745 19.7596C15.5683 21.1637 13.2986 21.9998 10.8337 21.9998C4.94262 21.9998 0.166992 17.2242 0.166992 11.3332C0.166992 5.44213 4.94262 0.666504 10.8337 0.666504C16.7247 0.666504 21.5003 5.44213 21.5003 11.3332C21.5003 13.7981 20.6642 16.0678 19.2601 17.874L26.4431 25.057C26.9638 25.5777 26.9638 26.4219 26.4431 26.9426C25.9224 27.4633 25.0782 27.4633 24.5575 26.9426L17.3745 19.7596ZM18.8337 11.3332C18.8337 15.7514 15.2519 19.3332 10.8337 19.3332C6.41538 19.3332 2.83366 15.7514 2.83366 11.3332C2.83366 6.91489 6.41538 3.33317 10.8337 3.33317C15.2519 3.33317 18.8337 6.91489 18.8337 11.3332Z" fill="#777E91"/>
</svg>
