<svg width="14" height="14" viewBox="0 0 14 14" fill="none" xmlns="http://www.w3.org/2000/svg">
<path d="M6.38772 1.08514C6.61932 0.548442 7.38033 0.548442 7.61193 1.08514L9.06528 4.45307C9.16335 4.68032 9.37925 4.83454 9.62603 4.85361L13.3531 5.14161C13.9511 5.18781 14.1887 5.93852 13.7262 6.32038L10.9233 8.63456C10.7256 8.79779 10.639 9.05994 10.7006 9.30881L11.5632 12.7944C11.7051 13.3676 11.0867 13.8286 10.5779 13.529L7.33804 11.6217C7.12931 11.4988 6.87034 11.4988 6.66161 11.6217L3.42179 13.529C2.91292 13.8286 2.29457 13.3676 2.43643 12.7944L3.29905 9.30881C3.36065 9.05994 3.27406 8.79779 3.07636 8.63456L0.273435 6.32038C-0.189071 5.93852 0.0485324 5.18781 0.646524 5.14161L4.37362 4.85361C4.6204 4.83454 4.8363 4.68032 4.93437 4.45307L6.38772 1.08514Z" fill="#23262F"/>
</svg>
